{"title":"The Hunger Games 2012 720p BRRip x264 MP4 Multisubs AAC-CC","uid":9620040,"size":2975510860,"categoryP":"video","categoryS":"hd___movies","magnet":"?xt=urn:btih:cffdc1803aab85be7ffc8c4aa33621946eca47fc&amp;dn=The+Hunger+Games+2012+720p+BRRip+x264+MP4+Multisubs+AAC-CC&amp;tr=udp%3A%2F%2Ftracker.openbittorrent.com%3A80&amp;tr=udp%3A%2F%2Fopen.demonii.com%3A1337&amp;tr=udp%3A%2F%2Ftracker.coppersurfer.tk%3A6969&amp;tr=udp%3A%2F%2Fexodus.desync.com%3A6969","seeders":5,"leechers":0,"uploader":"Caveman44","files":-1,"time":1392487585,"description":" &lt;a href=&quot;http://www.imdb.com/title/tt1392170&quot; rel=&quot;nofollow&quot; target=&quot;_NEW&quot;&gt;http://www.imdb.com/title/tt1392170&lt;/a&gt;\n\nSource: The.Hunger.Games.2012.720p.BluRay.x264.DTS-HDChina Thanks!\n\nSubs: Arabic, Brazilian, Chinese, Danish, Dutch, English, Farsi Persian, Finnish, French, Indonesian, Malay, Norwegian, Portuguese, Spanish, Swedish, Vietnamese.\n\nSample and Screens included.\n\nGeneral\nComplete name                            : The Hunger Games 2012 720p BRRip x264 MP4 Multisubs AAC-CC.mp4\nFormat                                   : MPEG-4\nFormat profile                           : Base Media\nCodec ID                                 : isom\nFile size                                : 2.74 GiB\nDuration                                 : 2h 22mn\nOverall bit rate mode                    : Variable\nOverall bit rate                         : 2 750 Kbps\nEncoded date                             : UTC 2014-01-22 20:34:28\nTagged date                              : UTC 2014-01-22 20:34:28\nWriting application                      : Yamb 2.1.0.0 \n\nVideo\nID                                       : 1\nFormat                                   : AVC\nFormat/Info                              : Advanced Video Codec\nFormat profile                           : &lt;a class=&quot;__cf_email__&quot; href=&quot;/cdn-cgi/l/email-protection&quot; data-cfemail=&quot;7830111f1038344c5649&quot;&gt;[email&amp;#160;protected]&lt;/a&gt;&lt;script cf-hash='f9e31' type=&quot;text/javascript&quot;&gt;\n/* &lt;![CDATA[ */!function(){try{var t=&quot;currentScript&quot;in document?document.currentScript:function(){for(var t=document.getElementsByTagName(&quot;script&quot;),e=t.length;e--;)if(t[e].getAttribute(&quot;cf-hash&quot;))return t[e]}();if(t&amp;&amp;t.previousSibling){var e,r,n,i,c=t.previousSibling,a=c.getAttribute(&quot;data-cfemail&quot;);if(a){for(e=&quot;&quot;,r=parseInt(a.substr(0,2),16),n=2;a.length-n;n+=2)i=parseInt(a.substr(n,2),16)^r,e+=String.fromCharCode(i);e=document.createTextNode(e),c.parentNode.replaceChild(e,c)}}}catch(u){}}();/* ]]&gt; */&lt;/script&gt;\nFormat settings, CABAC                   : Yes\nFormat settings, ReFrames                : 5 frames\nCodec ID                                 : avc1\nCodec ID/Info                            : Advanced Video Coding\nDuration                                 : 2h 22mn\nBit rate                                 : 2 446 Kbps\nMaximum bit rate                         : 17.3 Mbps\nWidth                                    : 1 280 pixels\nHeight                                   : 534 pixels\nDisplay aspect ratio                     : 2.40:1\nFrame rate mode                          : Variable\nFrame rate                               : 23.976 fps\nMinimum frame rate                       : 15.873 fps\nMaximum frame rate                       : 24.390 fps\nColor space                              : YUV\nChroma subsampling                       : 4:2:0\nBit depth                                : 8 bits\nScan type                                : Progressive\nBits/(Pixel*Frame)                       : 0.149\nStream size                              : 2.35 GiB (86%)\nWriting library                          : x264 core 112\nEncoding settings                        : cabac=1 / ref=5 / deblock=1:0:0 / analyse=0x3:0x113 / me=hex / subme=7 / psy=1 / psy_rd=1.00:0.00 / mixed_ref=1 / me_range=16 / chroma_me=1 / trellis=1 / 8x8dct=1 / cqm=0 / deadzone=21,11 / fast_pskip=1 / chroma_qp_offset=-2 / threads=3 / sliced_threads=0 / nr=0 / decimate=1 / interlaced=0 / constrained_intra=0 / bframes=5 / b_pyramid=2 / b_adapt=2 / b_bias=0 / direct=1 / weightb=1 / open_gop=0 / weightp=2 / keyint=240 / keyint_min=24 / scenecut=40 / intra_refresh=0 / rc_lookahead=50 / rc=abr / mbtree=1 / bitrate=2446 / ratetol=1.0 / qcomp=0.60 / qpmin=3 / qpmax=51 / qpstep=4 / ip_ratio=1.40 / aq=1:1.00\nEncoded date                             : UTC 2014-01-22 21:07:37\nTagged date                              : UTC 2014-01-22 20:39:14\nColor primaries                          : BT.709\nTransfer characteristics                 : BT.709\nMatrix coefficients                      : BT.709\n\nAudio\nID                                       : 2\nFormat                                   : AAC\nFormat/Info                              : Advanced Audio Codec\nFormat profile                           : LC\nCodec ID                                 : 40\nDuration                                 : 2h 22mn\nBit rate mode                            : Variable\nBit rate                                 : 384 Kbps\nMaximum bit rate                         : 743 Kbps\nChannel(s)                               : 6 channels\nChannel positions                        : Front: L C R, Side: L R, LFE\nSampling rate                            : 48.0 KHz\nCompression mode                         : Lossy\nDelay relative to video                  : 83ms\nStream size                              : 391 MiB (14%)\nLanguage                                 : English\nEncoded date                             : UTC 2014-01-22 20:38:14\nTagged date                              : UTC 2014-01-22 20:39:14\n\nEnjoy...\n\nRequested by lovestrange\n\nComing soon: Bridge to Terabithia, Lifeboat, The 39 Steps, High and Low, The Birdcage and more.","torrent":{"xt":"urn:btih:cffdc1803aab85be7ffc8c4aa33621946eca47fc","amp;dn":"The+Hunger+Games+2012+720p+BRRip+x264+MP4+Multisubs+AAC-CC","amp;tr":["udp%3A%2F%2Ftracker.openbittorrent.com%3A80","udp%3A%2F%2Fopen.demonii.com%3A1337","udp%3A%2F%2Ftracker.coppersurfer.tk%3A6969","udp%3A%2F%2Fexodus.desync.com%3A6969"],"infoHash":"cffdc1803aab85be7ffc8c4aa33621946eca47fc","infoHashBuffer":{"type":"Buffer","data":[207,253,193,128,58,171,133,190,127,252,140,74,163,54,33,148,110,202,71,252]},"announce":[],"urlList":[]}}